<!DOCTYPE svg PUBLIC "-//W3C//DTD SVG 1.1//EN" "http://www.w3.org/Graphics/SVG/1.1/DTD/svg11.dtd">
<!-- Uploaded to: SVG Repo, www.svgrepo.com, Transformed by: SVG Repo Mixer Tools -->
<svg fill="#e0bb00" height="800px" width="800px" version="1.1" id="Layer_1" xmlns="http://www.w3.org/2000/svg" xmlns:xlink="http://www.w3.org/1999/xlink" viewBox="0 0 512 512" xml:space="preserve" stroke="#e0bb00">
<g id="SVGRepo_bgCarrier" stroke-width="0"/>
<g id="SVGRepo_tracerCarrier" stroke-linecap="round" stroke-linejoin="round"/>
<g id="SVGRepo_iconCarrier"> <g> <g> <path d="M119.802,28.972c-0.21,0-0.418,0.002-0.626,0.005C110.682,11.58,92.777,0.051,72.933,0.051 c-20.656,0-39.334,12.603-47.321,31.286C10.508,36.852,0.047,51.343,0,67.855c-0.008,2.776,1.09,5.441,3.049,7.406 c1.96,1.965,4.622,3.07,7.397,3.07h137.899c2.776,0,5.438-1.104,7.398-3.07c1.96-1.965,3.058-4.63,3.049-7.406 C158.733,46.415,141.241,28.972,119.802,28.972z M24.275,57.437c2.628-3.672,6.609-6.348,11.29-7.244 c3.849-0.734,6.961-3.561,8.064-7.32c3.788-12.911,15.836-21.929,29.302-21.929c13.63,0,25.72,9.159,29.4,22.273 c1.546,5.51,7.234,8.749,12.763,7.269c1.537-0.412,3.119-0.621,4.706-0.621c6.048,0,11.419,2.991,14.709,7.572H24.275z"/> </g> </g> <g> <g> <path d="M296.576,446.133h-0.137c-5.769,0-10.447,4.677-10.447,10.447s4.678,10.447,10.447,10.447h0.137 c5.769,0,10.447-4.677,10.447-10.447S302.345,446.133,296.576,446.133z"/> </g> </g> <g> <g> <path d="M369.567,446.132h-39.195c-5.769,0-10.447,4.677-10.447,10.447s4.678,10.447,10.447,10.447h39.195 c5.769,0,10.447-4.677,10.447-10.447S375.336,446.132,369.567,446.132z"/> </g> </g> <g> <g> <path d="M296.576,406.958h-0.137c-5.769,0-10.447,4.677-10.447,10.447s4.678,10.447,10.447,10.447h0.137 c5.769,0,10.447-4.677,10.447-10.447S302.345,406.958,296.576,406.958z"/> </g> </g> <g> <g> <path d="M501.502,491.055h-0.137c-5.769,0-10.447,4.677-10.447,10.447s4.678,10.447,10.447,10.447h0.137 c5.769,0,10.447-4.677,10.447-10.447S507.271,491.055,501.502,491.055z"/> </g> </g> <g> <g> <path d="M10.635,491.054h-0.137c-5.769,0-10.447,4.677-10.447,10.447s4.678,10.447,10.447,10.447h0.137 c5.769,0,10.447-4.677,10.447-10.447S16.404,491.054,10.635,491.054z"/> </g> </g> <g> <g> <path d="M217.9,212.123c-6.438,0-11.677,5.238-11.677,11.677c0,6.438,5.238,11.677,11.677,11.677s11.678-5.238,11.677-11.677 C229.578,217.361,224.339,212.123,217.9,212.123z"/> </g> </g> <g> <g> <path d="M294.1,212.123c-6.438,0-11.678,5.238-11.678,11.677c0,6.438,5.239,11.677,11.678,11.677s11.675-5.238,11.676-11.677 C305.776,217.361,300.538,212.123,294.1,212.123z"/> </g> </g> <g> <g> <path d="M304.319,114.399C290.917,102.735,273.756,96.311,256,96.311s-34.917,6.423-48.319,18.088 c-4.353,3.787-4.811,10.386-1.023,14.738c3.786,4.352,10.386,4.81,14.737,1.023c9.6-8.354,21.889-12.955,34.603-12.955 c12.714,0,25.004,4.601,34.603,12.955c1.979,1.723,4.422,2.567,6.854,2.567c2.917,0,5.82-1.215,7.885-3.59 C309.129,124.785,308.671,118.186,304.319,114.399z"/> </g> </g> <g> <g> <path d="M290.593,143.02c-9.595-8.351-21.881-12.95-34.593-12.95c-12.712,0-24.996,4.599-34.593,12.95 c-4.352,3.788-4.81,10.386-1.023,14.738c3.787,4.353,10.387,4.811,14.738,1.023c5.793-5.041,13.208-7.816,20.877-7.816 c7.669,0,15.084,2.776,20.877,7.816c1.979,1.723,4.422,2.567,6.854,2.567c2.917,0,5.819-1.215,7.884-3.59 C295.403,153.406,294.945,146.807,290.593,143.02z"/> </g> </g> <g> <g> <path d="M448.617,96.732c-2.252,0-4.502,0.12-6.738,0.36c-13.036-32.104-44.627-53.802-79.867-53.802 c-25.023,0-48.723,10.944-65.004,29.642c-12.643-5.457-26.569-8.488-41.19-8.488c-57.503,0-104.285,46.782-104.285,104.285v21.643 c-13.566,4.413-23.4,17.179-23.4,32.198c0,15.02,9.834,27.786,23.4,32.198v16.03c-0.007,0.005-0.016,0.01-0.022,0.016 c-4.5,3.294-6.092,9.239-4.155,15.515c0.054,0.178,0.114,0.354,0.179,0.529c2.843,7.718,8.678,16.803,16.769,24.613 c0.204,8.206,1.524,25.718,8.406,45.065l-40.432,16.847c-17.596,7.332-29.884,26.674-29.884,47.036v70.637H75.218V274.719 c0-20.737-16.871-37.609-37.609-37.609C16.871,237.11,0,253.981,0,274.719v26.652c0,5.77,4.678,10.447,10.447,10.447 c5.769,0,10.447-4.677,10.447-10.447v-26.652c0-9.216,7.499-16.715,16.715-16.715s16.715,7.498,16.715,16.715v216.336h-9.892 c-5.769,0-10.447,4.677-10.447,10.447s4.678,10.447,10.447,10.447h423.136c5.769,0,10.447-4.677,10.447-10.447 s-4.678-10.447-10.447-10.447h-57.959v-70.637c0-20.364-12.29-39.705-29.884-47.037l-40.662-16.943 c6.797-19.153,8.146-36.489,8.367-44.763c8.201-7.855,14.112-17.033,16.98-24.818c0.065-0.177,0.124-0.354,0.18-0.534 c1.93-6.256,0.35-12.181-4.117-15.48v-16.076c13.566-4.413,23.4-17.179,23.4-32.198c0-15.019-9.834-27.786-23.4-32.198v-20.146 h140.896c2.776,0,5.438-1.105,7.397-3.07c1.96-1.965,3.058-4.63,3.049-7.406C511.713,125.001,483.364,96.732,448.617,96.732z M245.503,491.055h-0.001H123.286v-70.637c0-11.775,7.32-23.705,17.027-27.75l40.956-17.065 c4.314,7.787,9.71,15.483,16.472,22.631c3.118,3.295,8.003,4.201,12.096,2.245c2.873-1.374,4.894-3.94,5.632-6.903 c8.47,20.246,19.41,42.616,30.034,53.406V491.055z M177.069,294.696c11.014-0.481,19.741-6.546,28.192-12.418 c8.19-5.691,15.925-11.067,25.222-11.067c3.281,0,10.053,1.128,18.539,8.686c3.96,3.527,9.935,3.527,13.895,0 c8.486-7.557,15.258-8.686,18.539-8.686c9.296,0,17.032,5.376,25.222,11.067c8.45,5.873,17.177,11.938,28.192,12.418 c-7.052,7.48-17.085,14.056-28.695,14.056c-20.09,0-33.085-4.912-42.134-15.925c-1.984-2.415-4.945-3.815-8.072-3.815 c-3.127,0-6.087,1.4-8.072,3.815c-9.049,11.013-22.044,15.925-42.134,15.925C194.153,308.753,184.119,302.176,177.069,294.696z M220.748,348.356c-1.337-3.975-4.924-6.765-9.105-7.086c-4.166-0.322-8.15,1.891-10.076,5.616 c-0.205,0.397-2.692,5.297-4.716,13.28c-5.845-12.25-8.775-24.542-10.24-34.169c5.94,2.289,12.357,3.648,19.151,3.648 c21.538,0,37.791-4.924,50.207-15.358c12.416,10.434,28.667,15.358,50.207,15.358c6.731,0,13.091-1.333,18.985-3.583 c-1.454,9.622-4.386,21.9-10.264,34.157c-2.026-8.015-4.522-12.936-4.728-13.333c-1.926-3.724-5.902-5.936-10.077-5.616 c-4.182,0.321-7.767,3.111-9.104,7.086c-8.644,25.704-23.818,62.744-35.119,78.676 C244.573,411.102,229.397,374.061,220.748,348.356z M371.688,392.668c9.706,4.044,17.026,15.974,17.026,27.75v70.637H266.396 v-44.237c10.573-10.853,21.444-33.1,29.871-53.242c0.738,2.963,2.759,5.53,5.633,6.903c4.09,1.957,8.979,1.049,12.095-2.245 c6.787-7.175,12.199-14.904,16.521-22.721L371.688,392.668z M362.975,222.57c0,7.143-5.812,12.953-12.953,12.953 c-5.769,0-10.447,4.677-10.447,10.447v27.809c-0.801,0.052-1.828,0.054-3.298,0.054c-5.138,0-10.947-4.038-17.676-8.713 c-9.49-6.595-21.302-14.803-37.145-14.803c-6.247,0-15.299,1.622-25.486,8.537c-10.188-6.915-19.239-8.537-25.486-8.537 c-15.843,0-27.655,8.208-37.146,14.804c-6.727,4.675-12.536,8.713-17.674,8.713c-1.434,0-2.446-0.001-3.239-0.05v-27.813 c0-5.77-4.678-10.447-10.447-10.447c-7.143,0-12.953-5.812-12.953-12.953s5.812-12.953,12.953-12.953 c5.769,0,10.447-4.677,10.447-10.447v-30.44c0-45.982,37.409-83.391,83.391-83.391c45.982,0,83.759,37.409,83.759,83.391 c0,0.954,0,30.44,0,30.44c0,5.77,4.678,10.447,10.447,10.447C357.165,209.616,362.975,215.427,362.975,222.57z M358.286,149.332 c-5.122-27.118-20.773-50.558-42.531-65.894c12.157-12.204,28.782-19.255,46.257-19.255c29.142,0,54.988,19.584,62.854,47.622 c1.545,5.511,7.238,8.749,12.765,7.269c3.585-0.961,7.281-1.449,10.988-1.449c19.643,0,36.233,13.498,40.955,31.706H358.286z"/> </g> </g> <g> <g> <path d="M472.195,347.91h-5.219v-5.22c0-5.77-4.678-10.447-10.447-10.447s-10.447,4.677-10.447,10.447v5.22h-5.219 c-5.769,0-10.447,4.677-10.447,10.447s4.678,10.447,10.447,10.447h5.219v5.219c0,5.77,4.678,10.447,10.447,10.447 s10.447-4.677,10.447-10.447v-5.219h5.219c5.769,0,10.447-4.677,10.447-10.447S477.965,347.91,472.195,347.91z"/> </g> </g> <g> <g> <path d="M501.553,215.987h-5.219v-5.219c0-5.77-4.678-10.447-10.447-10.447s-10.447,4.677-10.447,10.447v5.219h-5.219 c-5.769,0-10.447,4.677-10.447,10.447s4.678,10.447,10.447,10.447h5.219v5.22c0,5.77,4.678,10.447,10.447,10.447 s10.447-4.677,10.447-10.447v-5.22h5.219c5.769,0,10.447-4.677,10.447-10.447S507.322,215.987,501.553,215.987z"/> </g> </g> <g> <g> <path d="M104.294,157.36h-5.219v-5.219c0-5.77-4.678-10.447-10.447-10.447c-5.769,0-10.447,4.677-10.447,10.447v5.219h-5.219 c-5.769,0-10.447,4.677-10.447,10.447c0,5.77,4.678,10.447,10.447,10.447h5.219v5.219c0,5.77,4.678,10.447,10.447,10.447 c5.769,0,10.447-4.677,10.447-10.447v-5.219h5.219c5.769,0,10.447-4.677,10.447-10.447 C114.741,162.038,110.064,157.36,104.294,157.36z"/> </g> </g> </g>
</svg>